Coordinates
version=1
nRows=10
nColumns=46
inDegrees=yes

Units are S.I. units (second, meters, Newtons, ...)
Angles are in degrees.

endheader
time	pelvis_tilt	pelvis_list	pelvis_rotation	pelvis_tx	pelvis_ty	pelvis_tz	bb_angle	bb_tx	bb_ty	bb_tz	hip_flexion_r	hip_adduction_r	hip_rotation_r	knee_angle_r	knee_angle_r_beta	ankle_angle_r	subtalar_angle_r	mtp_angle_r	crank_angle_r	hip_flexion_l	hip_adduction_l	hip_rotation_l	knee_angle_l	knee_angle_l_beta	ankle_angle_l	subtalar_angle_l	mtp_angle_l	crank_angle_l	lumbar_extension	lumbar_bending	lumbar_rotation	arm_flex_r	arm_add_r	arm_rot_r	elbow_flex_r	pro_sup_r	wrist_flex_r	wrist_dev_r	arm_flex_l	arm_add_l	arm_rot_l	elbow_flex_l	pro_sup_l	wrist_flex_l	wrist_dev_l
      2.50000000	    -13.11251886	      4.35238968	      1.12777788	      0.11232044	      1.15363562	     -0.21144430	      0.00000000	      0.50000000	      0.00000000	      0.25000000	     58.72156502	    -10.99947984	     -1.45500690	     77.05325296	      1.34483296	    -13.99659351	    -11.34244237	      0.00000000	      0.00000000	     78.13873939	     -6.86129958	     -3.95409218	     82.73450185	      1.44398946	     22.15790264	     -0.75194600	      0.00000000	      0.00000000	    -56.78993740	     -6.02444480	      0.47554664	     89.60122185	    -10.91655629	     28.93332361	     31.50380379	     26.17477687	      0.00000000	      0.00000000	     89.78586841	      4.24041632	     24.22989769	     32.16760581	     23.46274282	      0.00000000	      0.00000000
      2.50500000	    -13.19954447	      4.17586959	      0.92405320	      0.11285627	      1.15390922	     -0.21195529	      0.00000000	      0.50000000	      0.00000000	      0.25000000	     59.17951263	    -10.84854546	     -1.38338561	     77.98294654	      1.36105918	    -13.56125791	    -11.04831164	      0.00000000	      0.00000000	     77.65210045	     -6.86441326	     -3.80932192	     81.64280694	      1.42493579	     21.68002347	     -0.88475547	      0.00000000	      0.00000000	    -56.75123642	     -6.01168833	      0.88565036	     89.58738155	    -11.25056098	     28.94020292	     31.84947937	     26.08179731	      0.00000000	      0.00000000	     89.78506594	      4.49751202	     24.11735850	     31.93296280	     23.96505652	      0.00000000	      0.00000000
      2.51000000	    -13.27621859	      4.08173697	      0.77887716	      0.11342167	      1.15425300	     -0.21250841	      0.00000000	      0.50000000	      0.00000000	      0.25000000	     59.64850907	    -10.81687325	     -1.27822881	     78.92445538	      1.37749161	    -13.15771155	    -10.78244215	      0.00000000	      0.00000000	     77.09491828	     -6.81435570	     -3.73504389	     80.49173443	      1.40484579	     21.19224298	     -0.88556493	      0.00000000	      0.00000000	    -56.72597281	     -5.99626585	      0.97161643	     89.59902095	    -11.43832816	     30.04353104	     31.84175089	     25.74538044	      0.00000000	      0.00000000	     89.78057305	      4.23780304	     24.62481820	     32.17607955	     23.04668810	      0.00000000	      0.00000000
      2.51500000	    -13.16861659	      3.71548312	      0.51437703	      0.11398078	      1.15482449	     -0.21279491	      0.00000000	      0.50000000	      0.00000000	      0.25000000	     59.84140981	    -10.47350523	     -1.39185398	     79.76696621	      1.39219619	    -12.94860249	    -10.98874678	      0.00000000	      0.00000000	     76.42495228	     -7.03920947	     -3.45643041	     79.46195789	      1.38687280	     20.85991894	     -0.44602582	      0.00000000	      0.00000000	    -56.93781135	     -5.91180113	      1.88026452	     89.54937092	    -11.83400978	     27.56992200	     32.74357867	     27.73723994	      0.00000000	      0.00000000	     89.78763214	      5.30355608	     23.06175700	     31.32909424	     25.81560730	      0.00000000	      0.00000000
      2.52000000	    -13.40438485	      3.73824858	      0.47828917	      0.11447716	      1.15465803	     -0.21356170	      0.00000000	      0.50000000	      0.00000000	      0.25000000	     60.57477785	    -10.65430373	     -1.20354945	     80.83338984	      1.41080880	    -12.25799636	    -10.11429140	      0.00000000	      0.00000000	     76.01062594	     -6.81766661	     -3.44382474	     78.28382880	      1.36631056	     20.26346051	     -0.59603150	      0.00000000	      0.00000000	    -56.66108213	     -5.88971616	      1.43701944	     89.60088742	    -11.52392390	     29.75128408	     31.68769151	     27.22640012	      0.00000000	      0.00000000	     89.77526549	      4.40085612	     24.14236038	     31.84283601	     24.83347882	      0.00000000	      0.00000000
      2.52500000	    -13.40414260	      3.51830262	      0.40404400	      0.11495462	      1.15498490	     -0.21439932	      0.00000000	      0.50000000	      0.00000000	      0.25000000	     60.97997211	    -10.65656527	     -1.28658729	     81.77896266	      1.42731216	    -12.09099574	    -10.11774737	      0.00000000	      0.00000000	     75.37222496	     -6.67722849	     -3.10120664	     77.16692019	      1.34681683	     19.86230167	     -0.51976219	      0.00000000	      0.00000000	    -56.77693067	     -5.74472236	      1.84022099	     89.58864485	    -11.95719358	     29.15160507	     32.32203520	     27.70651311	      0.00000000	      0.00000000	     89.77154223	      4.64009505	     23.83855844	     31.96717057	     25.20000264	      0.00000000	      0.00000000
      2.53000000	    -13.48967076	      3.32576566	      0.19098897	      0.11552099	      1.15491764	     -0.21495008	      0.00000000	      0.50000000	      0.00000000	      0.25000000	     61.52283380	    -10.52451022	     -1.19217248	     82.77735450	      1.44473738	    -11.45479042	     -9.36411846	      0.00000000	      0.00000000	     74.84817021	     -6.76897678	     -2.97816375	     76.10629938	      1.32830551	     19.30535783	     -0.47350097	      0.00000000	      0.00000000	    -56.61868572	     -5.76239585	      2.08383620	     89.60336699	    -12.53000403	     31.86469702	     32.88698395	     23.69274686	      0.00000000	      0.00000000	     89.76985505	      4.37820215	     25.61956222	     32.96904657	     18.12958935	      0.00000000	      0.00000000
      2.53500000	    -13.59529784	      3.13466075	      0.02420037	      0.11605226	      1.15476065	     -0.21555368	      0.00000000	      0.50000000	      0.00000000	      0.25000000	     62.11538657	    -10.43172771	     -1.13769471	     83.79301666	      1.46246403	    -11.09802786	     -9.04211665	      0.00000000	      0.00000000	     74.30788111	     -6.73566932	     -2.73888096	     74.98504325	      1.30873589	     18.90000556	     -0.46613547	      0.00000000	      0.00000000	    -56.50099039	     -5.71173310	      2.36805045	     89.59766850	    -12.22894021	     30.50974535	     32.28081198	     26.08331989	      0.00000000	      0.00000000	     89.76806388	      4.64966393	     24.55346034	     31.90760745	     23.40654781	      0.00000000	      0.00000000
      2.54000000	    -13.56980963	      2.93826857	     -0.09192168	      0.11657309	      1.15486982	     -0.21629572	      0.00000000	      0.50000000	      0.00000000	      0.25000000	     62.56601144	    -10.40556280	     -1.14246929	     84.81150801	      1.48024006	    -10.70556082	     -8.71466491	      0.00000000	      0.00000000	     73.60992867	     -6.67331652	     -2.51834352	     73.86180009	      1.28913160	     18.42579581	     -0.55506015	      0.00000000	      0.00000000	    -56.52014614	     -5.62011518	      2.61335257	     89.59988625	    -12.41356992	     31.05619707	     32.38053637	     25.59884899	      0.00000000	      0.00000000	     89.76604424	      4.62374020	     25.05449868	     31.95758555	     22.61010640	      0.00000000	      0.00000000
      2.54500000	    -13.52543785	      2.80847212	     -0.16872913	      0.11702567	      1.15496035	     -0.21702273	      0.00000000	      0.50000000	      0.00000000	      0.25000000	     63.07685890	    -10.48375656	     -1.12641391	     85.86764457	      1.49867312	    -10.44101107	     -8.44671514	      0.00000000	      0.00000000	     72.83913204	     -6.53818877	     -2.36714954	     72.67861491	      1.26848113	     17.94032640	     -0.72371774	      0.00000000	      0.00000000	    -56.56680943	     -5.50951998	      2.69983743	     89.61002326	    -12.37820347	     31.26834640	     32.14500104	     26.42340237	      0.00000000	      0.00000000	     89.76246633	      4.41774301	     25.16691105	     31.83405212	     23.83762539	      0.00000000	      0.00000000
